<svg width="320" height="96" viewBox="0 0 320 96" fill="none" xmlns="http://www.w3.org/2000/svg">
<path d="M15.5575 43.7128C16.5282 41.4249 15.4603 38.7833 13.1724 37.8127C10.8845 36.8421 8.24292 37.9099 7.27229 40.1978L15.5575 43.7128ZM197.308 37.4599L196.592 41.9025L197.308 37.4599ZM251.855 55.1879L254.729 58.6509L254.729 58.6509L251.855 55.1879ZM319.108 24.3807C320.168 22.1332 319.206 19.4513 316.959 18.3904L280.334 1.10296C278.086 0.0421123 275.405 1.00408 274.344 3.25158C273.283 5.49907 274.245 8.18101 276.492 9.24186L309.048 24.6085L293.681 57.1641C292.62 59.4116 293.582 62.0935 295.83 63.1544C298.077 64.2152 300.759 63.2532 301.82 61.0057L319.108 24.3807ZM7.27229 40.1978C1.85154 52.9754 -0.510938 63.0883 0.353195 70.8019C0.796983 74.7633 2.1068 78.2201 4.39879 81.0108C6.68837 83.7985 9.71705 85.6282 13.1185 86.7357C19.7265 88.8873 28.2204 88.4686 37.3945 86.8171C46.7043 85.1412 57.358 82.0672 68.6212 78.3317C79.9003 74.5909 91.9408 70.1352 104.02 65.6581C116.13 61.1699 128.284 56.6584 139.909 52.7536C151.542 48.8461 162.53 45.5861 172.291 43.5811C182.121 41.562 190.347 40.8952 196.592 41.9025L198.025 33.0173C190.179 31.7518 180.691 32.6678 170.48 34.7652C160.2 36.8768 148.817 40.267 137.043 44.222C125.261 48.1795 112.971 52.7425 100.893 57.2191C88.7844 61.7068 76.8928 66.1063 65.788 69.7893C54.6672 73.4776 44.4852 76.396 35.8 77.9595C26.979 79.5474 20.3184 79.6149 15.9049 78.1779C13.7957 77.4911 12.3469 76.5078 11.3537 75.2986C10.3631 74.0924 9.58499 72.3684 9.29725 69.7999C8.69831 64.4535 10.2982 56.1099 15.5575 43.7128L7.27229 40.1978ZM196.592 41.9025C231.879 47.594 257.015 54.0975 269.852 61.4249C276.416 65.1717 278.327 68.3119 278.474 70.4334C278.619 72.5326 277.197 76.097 270.509 81.1399L275.928 88.3258C283.105 82.914 287.933 76.7623 287.453 69.8132C286.974 62.8863 281.386 57.6459 274.313 53.6086C259.877 45.3679 233.193 38.6897 198.025 33.0173L196.592 41.9025ZM270.509 81.1399C264.137 85.9456 259.072 87.2327 255.544 86.9455C252.137 86.6682 249.597 84.8918 248.014 82.1803C244.749 76.5895 245.467 66.3366 254.729 58.6509L248.981 51.7249C236.88 61.7672 234.416 76.7415 240.242 86.7186C243.204 91.791 248.277 95.3837 254.814 95.9158C261.229 96.4381 268.437 93.9748 275.928 88.3258L270.509 81.1399ZM254.729 58.6509C262.85 51.9114 274.77 45.1675 286.593 39.4288C298.357 33.7192 309.73 29.1445 316.557 26.6956L313.519 18.2241C306.406 20.7752 294.734 25.4733 282.663 31.3322C270.653 37.1619 257.951 44.282 248.981 51.7249L254.729 58.6509Z" fill="url(#paint0_linear_97_194)"/>
<defs>
<linearGradient id="paint0_linear_97_194" x1="-230.133" y1="135.482" x2="306.529" y2="74.8635" gradientUnits="userSpaceOnUse">
<stop stop-color="#FFF278"/>
<stop offset="1" stop-color="#F28D2F"/>
</linearGradient>
</defs>
</svg>
